<svg width="57" height="58" viewBox="0 0 57 58" fill="none" xmlns="http://www.w3.org/2000/svg">
<path d="M0.674275 57.4623L7.32573 57.4623L7.32572 50.5792L0.674274 50.5792L0.674275 57.4623ZM56.0506 0.999963C56.0506 0.534381 55.6859 0.156952 55.236 0.156952L47.9043 0.156954C47.4543 0.156954 47.0896 0.534383 47.0896 0.999965C47.0896 1.46555 47.4543 1.84298 47.9043 1.84298L54.4213 1.84297L54.4213 8.58706C54.4213 9.05264 54.786 9.43007 55.236 9.43007C55.6859 9.43007 56.0506 9.05264 56.0506 8.58706L56.0506 0.999963ZM4.57603 54.6169L55.812 1.59606L54.6599 0.403865L3.42397 53.4247L4.57603 54.6169Z" fill="#2D2D2D"/>
</svg>
