<svg width="21" height="19" viewBox="0 0 21 19" fill="none" xmlns="http://www.w3.org/2000/svg">
<path d="M8.62268 10.9017C8.06721 10.9017 7.62042 10.495 7.62042 10.0003C7.62042 9.49457 8.06721 9.08782 8.62268 9.08782C9.17011 9.08782 9.61287 9.49457 9.61287 10.0003C9.61287 10.4986 9.16608 10.9017 8.62268 10.9017ZM20.7988 9.08782C20.7988 14.1081 16.3309 18.1756 10.8164 18.1756C5.30192 18.1756 0.833984 14.1081 0.833984 9.08782C0.833984 4.06753 5.30192 0 10.8164 0C16.3309 0 20.7988 4.06753 20.7988 9.08782ZM15.4735 7.57807C15.0952 7.57807 14.7611 7.72098 14.5155 7.94451C13.6139 7.37652 12.3983 7.01008 11.0499 6.96977L11.7502 4.10051L13.9802 4.55857C13.9802 5.05693 14.427 5.46002 14.9704 5.46002C15.5258 5.46002 15.9726 5.04594 15.9726 4.54757C15.9726 4.04921 15.5258 3.63513 14.9704 3.63513C14.5799 3.63513 14.2458 3.84767 14.0808 4.14082L11.6174 3.64246C11.4967 3.61314 11.3719 3.69376 11.3397 3.80369L10.5709 6.96977C9.23451 7.02107 8.03098 7.38385 7.12935 7.95184C6.88381 7.71732 6.53765 7.57807 6.15928 7.57807C4.7545 7.57807 4.29563 9.29669 5.57966 9.87934C5.53538 10.0626 5.51123 10.2531 5.51123 10.4473C5.51123 12.3748 7.89413 13.9359 10.8245 13.9359C13.7668 13.9359 16.1497 12.3748 16.1497 10.4473C16.1497 10.2531 16.1256 10.0516 16.0733 9.86835C17.3331 9.28203 16.8703 7.57807 15.4735 7.57807ZM12.7002 11.8362C11.9676 12.5031 9.63703 12.4921 8.93262 11.8362C8.84407 11.7555 8.68709 11.7555 8.59853 11.8362C8.4979 11.9278 8.4979 12.0707 8.59853 12.1513C9.51627 12.9868 12.1125 12.9868 13.0343 12.1513C13.1349 12.0707 13.1349 11.9278 13.0343 11.8362C12.9457 11.7555 12.7887 11.7555 12.7002 11.8362ZM13.0101 9.08782C12.4627 9.08782 12.0199 9.49457 12.0199 10.0003C12.0199 10.4986 12.4667 10.9017 13.0101 10.9017C13.5656 10.9017 14.0124 10.495 14.0124 10.0003C14.0124 9.49457 13.5696 9.08782 13.0101 9.08782Z" fill="white"/>
</svg>
